# xmcd
#
# Track frame offsets:
#	150
#	17619
#	32388
#	46993
#	61674
#	84848
#	100559
#	117078
#	130658
#	143084
#	156742
#	168860
#	186396
#	207257
#	220487
#
# Disc length: 3122 seconds
#
# Revision: 0
# Processed by: cddbd v1.5.2PL0 Copyright (c) Steve Scherf et al.
# Submitted via: dBpowerAMP V4.0
#
DISCID=c00c300f
DTITLE=Camila - Todo cambio
DYEAR=2007
DGENRE=Blues
TTITLE0=Abrazame
TTITLE1=U Got My Love
TTITLE2=Me basto
TTITLE3=Todo cambio
TTITLE4=Coleccionista de canciones
TTITLE5=Yo quiero
TTITLE6=Me da igual
TTITLE7=Va para ti
TTITLE8=Sin Tu Amor
TTITLE9=Perderte de nuevo
TTITLE10=Nanga ti feo
TTITLE11=Abrazame [Version Acustica]
TTITLE12=Coleccionista de canciones [Version Acustica]
TTITLE13=U got my love (Version Acustica)
TTITLE14=Solo para ti
EXTD=
EXTT0=
EXTT1=
EXTT2=
EXTT3=
EXTT4=
EXTT5=
EXTT6=
EXTT7=
EXTT8=
EXTT9=
EXTT10=
EXTT11=
EXTT12=
EXTT13=
EXTT14=
PLAYORDER=
